<?xml version="1.0" encoding="utf-8"?>
<!-- Generator: Adobe Illustrator 15.1.0, SVG Export Plug-In . SVG Version: 6.00 Build 0)  -->
<!DOCTYPE svg PUBLIC "-//W3C//DTD SVG 1.1//EN" "http://www.w3.org/Graphics/SVG/1.1/DTD/svg11.dtd">
<svg version="1.1" id="Layer_1" xmlns="http://www.w3.org/2000/svg" xmlns:xlink="http://www.w3.org/1999/xlink" x="0px" y="0px"
	 width="88.85px" height="71.164px" viewBox="0 0 88.85 71.164" enable-background="new 0 0 88.85 71.164" xml:space="preserve">
<g>
	<path d="M57.097,16.045l-3.111-3.054l0.6-2.743l-2.325-0.072l-0.882-1.368l1.469-1.027l-1.646-1.81l0.864-4.414l-4.738,3.595
		l-2.521-3.728L41.373,4.26l-2.682,0.938l-3.83,0.278l-1.27-1.026l0.305,2.662l-0.855,2.534l0.974,2.992l-3.064,2.027l2.822,3.7
		l-2.28,3.907l5.123,0.061l2.813,3.085l-0.604,5.981l2.972-6.544l1.947,0.816l2.542-2.133l3.137,0.085l6.273,2.996l-3.222-6.809
		l1.221-2.372L57.097,16.045z M45.549,21.466c-3.599,1.167-7.568-1.116-8.865-5.098c-1.296-3.983,0.57-8.155,4.168-9.315
		c3.597-1.16,7.566,1.118,8.862,5.098C51.009,16.131,49.145,20.299,45.549,21.466z"/>
	<path d="M40.505,8.911c-2.807,0.909-4.262,4.165-3.25,7.271c1.012,3.106,4.109,4.889,6.913,3.977
		c2.807-0.911,4.263-4.165,3.25-7.271C46.409,9.782,43.305,8.001,40.505,8.911z"/>
	<path d="M22.186,46.081l-2.369-3.421l1.407-5.846l-3.828,6.083l-1.819-1.071l-2.806,1.771L9.67,43.09l-5.804-3.825l2.264,7.179
		l-1.521,2.187l-3.567,0.929l2.662,3.444l-0.956,2.637l2.296,0.38l0.689,1.474l-1.584,0.825l1.378,2.017L4.072,64.59l5.182-2.921
		l1.996,4.034l3.784-2.346l2.783-0.569l3.834,0.242l1.125,1.188l0.055-2.672l1.188-2.411l-0.57-3.093l3.318-1.594l-2.296-4.044
		l2.783-3.56L22.186,46.081z M15.933,60.658c-3.723,0.671-7.348-2.125-8.095-6.245c-0.749-4.12,1.665-8.003,5.387-8.674
		c3.722-0.671,7.347,2.127,8.094,6.245C22.066,56.104,19.65,59.987,15.933,60.658z"/>
	<path d="M12.637,47.537c-2.905,0.523-4.786,3.554-4.202,6.767c0.583,3.214,3.41,5.396,6.315,4.873
		c2.905-0.523,4.785-3.554,4.202-6.767C18.37,49.195,15.551,47.014,12.637,47.537z"/>
	<path d="M80.653,47.122l2.782-3.562l-5.066-0.762l-2.367-3.426l1.407-5.843l-3.83,6.083l-1.816-1.07l-2.807,1.77l-3.104-0.504
		l-5.803-3.813l2.265,7.177l-1.521,2.184l-3.561,0.927l2.662,3.446l-0.964,2.637l2.294,0.379l0.689,1.474l-1.598,0.819l1.389,2.013
		l-1.453,4.256l5.182-2.933l1.997,4.034l3.784-2.347l2.783-0.569l3.834,0.24l1.119,1.2l0.057-2.673l1.185-2.411l-0.561-3.094
		l3.319-1.599L80.653,47.122z M72.1,57.387c-3.724,0.671-7.348-2.126-8.094-6.248c-0.747-4.12,1.664-8.003,5.386-8.674
		c3.724-0.67,7.348,2.127,8.095,6.248s-1.655,7.999-5.378,8.67L72.1,57.387z"/>
	<path d="M68.821,44.261c-2.905,0.524-4.795,3.554-4.204,6.763c0.593,3.208,3.411,5.396,6.313,4.872
		c2.903-0.521,4.787-3.552,4.203-6.768C74.55,45.914,71.723,43.737,68.821,44.261z"/>
</g>
</svg>
