<?xml version="1.0" encoding="utf-8"?>
<!-- Generator: Adobe Illustrator 15.1.0, SVG Export Plug-In . SVG Version: 6.00 Build 0)  -->
<!DOCTYPE svg PUBLIC "-//W3C//DTD SVG 1.1//EN" "http://www.w3.org/Graphics/SVG/1.1/DTD/svg11.dtd">
<svg version="1.1" id="Layer_1" xmlns="http://www.w3.org/2000/svg" xmlns:xlink="http://www.w3.org/1999/xlink" x="0px" y="0px"
	 width="180px" height="252px" viewBox="0 0 180 252" enable-background="new 0 0 180 252" xml:space="preserve">
<pattern  width="71.716" height="82.811" patternUnits="userSpaceOnUse" id="Hexagon_Persian" viewBox="45.281 -90.388 71.716 82.811" overflow="visible">
	<g>
		<polygon fill="none" points="45.281,-7.577 45.281,-90.388 116.997,-90.388 116.997,-7.577 		"/>
		<line fill="#FFFFFF" x1="20.531" y1="-13.577" x2="26.531" y2="-7.577"/>
		<line fill="#FFFFFF" x1="20.531" y1="-7.577" x2="26.531" y2="-13.577"/>
		<polygon fill="#231F20" points="40.906,-15.154 49.656,-15.154 54.031,-7.577 49.656,0 40.906,0 36.531,-7.577 		"/>
		<path fill="#231F20" d="M45.281-7.577"/>
		<polygon fill="#231F20" points="112.622,0 108.247,-7.577 112.622,-15.154 121.372,-15.154 125.747,-7.577 121.372,0 		"/>
		<path fill="#231F20" d="M116.997-7.577"/>
		<polygon fill="#231F20" points="85.513,-35.857 89.888,-28.279 85.513,-20.702 76.763,-20.701 72.388,-28.279 76.763,-35.857 		
			"/>
		<path fill="#231F20" d="M81.138-28.279"/>
		<polygon fill="#231F20" points="40.906,-56.56 49.656,-56.56 54.031,-48.982 49.656,-41.404 40.906,-41.404 36.531,-48.982 		"/>
		<path fill="#231F20" d="M45.281-48.982"/>
		<polygon fill="#231F20" points="121.372,-41.405 112.622,-41.404 108.247,-48.982 112.622,-56.56 121.372,-56.56 125.747,-48.982 
					"/>
		<path fill="#231F20" d="M116.997-48.982"/>
		<polygon fill="#231F20" points="89.888,-69.685 85.513,-62.107 76.763,-62.107 72.388,-69.685 76.763,-77.263 85.513,-77.263 		
			"/>
		<path fill="#231F20" d="M81.138-69.685"/>
		<polygon fill="#231F20" points="40.906,-97.966 49.656,-97.966 54.031,-90.388 49.656,-82.81 40.906,-82.81 36.531,-90.388 		"/>
		<path fill="#231F20" d="M45.281-90.388"/>
		<polygon fill="#231F20" points="121.372,-82.81 112.622,-82.81 108.247,-90.388 112.622,-97.966 121.372,-97.966 125.747,-90.388 
					"/>
		<path fill="#231F20" d="M116.997-90.388"/>
		<polygon fill="#231F20" points="17.5,-82.999 13.125,-75.421 4.375,-75.421 0,-82.999 4.375,-90.577 13.125,-90.577 		"/>
		<polygon fill="#231F20" points="64.81,-23.904 57.232,-19.529 61.607,-11.951 69.185,-16.327 		"/>
		<polygon fill="#231F20" points="76.763,-11.951 76.763,-3.202 85.513,-3.202 85.513,-11.951 		"/>
		<polygon fill="#231F20" points="93.09,-16.326 100.668,-11.951 105.043,-19.529 97.465,-23.904 		"/>
		<polygon fill="#231F20" points="49.656,-23.904 49.656,-32.654 40.906,-32.654 40.906,-23.904 		"/>
		<polygon fill="#231F20" points="112.622,-32.654 112.622,-23.904 121.372,-23.904 121.372,-32.654 		"/>
		<polygon fill="#231F20" points="93.09,-57.732 100.668,-53.357 105.043,-60.935 97.465,-65.31 		"/>
		<polygon fill="#231F20" points="97.465,-32.654 105.043,-37.03 100.668,-44.607 93.09,-40.232 		"/>
		<polygon fill="#231F20" points="61.607,-53.357 69.185,-57.732 64.81,-65.31 57.232,-60.935 		"/>
		<polygon fill="#231F20" points="57.232,-37.029 64.81,-32.654 69.185,-40.232 61.607,-44.607 		"/>
		<polygon fill="#231F20" points="85.513,-44.607 85.513,-53.357 76.763,-53.357 76.763,-44.607 		"/>
		<polygon fill="#231F20" points="49.656,-65.31 49.656,-74.06 40.906,-74.06 40.906,-65.31 		"/>
		<polygon fill="#231F20" points="112.622,-74.06 112.622,-65.31 121.372,-65.31 121.372,-74.06 		"/>
		<polygon fill="#231F20" points="97.465,-74.06 105.043,-78.435 100.668,-86.013 93.09,-81.638 		"/>
		<polygon fill="#231F20" points="85.513,-86.013 85.513,-94.763 76.763,-94.763 76.763,-86.013 		"/>
		<polygon fill="#231F20" points="57.232,-78.435 64.81,-74.06 69.185,-81.638 61.607,-86.013 		"/>
		<polygon fill="#231F20" points="13.125,-53.921 13.125,-62.671 4.375,-62.671 4.375,-53.921 		"/>
		<polygon fill="#231F20" points="69.185,-16.327 76.763,-20.702 76.763,-11.952 		"/>
		<polygon fill="#231F20" points="61.607,-11.951 54.031,-7.577 61.607,-3.202 		"/>
		<polygon fill="#231F20" points="100.668,-11.952 108.247,-7.577 100.668,-3.202 		"/>
		<polygon fill="#231F20" points="85.513,-11.951 85.513,-20.702 93.09,-16.327 		"/>
		<polygon fill="#231F20" points="57.232,-19.529 49.656,-15.154 49.656,-23.904 		"/>
		<polygon fill="#231F20" points="64.81,-32.654 72.388,-28.279 64.81,-23.904 		"/>
		<polygon fill="#231F20" points="57.232,-37.029 49.656,-41.404 49.656,-32.654 		"/>
		<polygon fill="#231F20" points="105.043,-37.029 112.622,-41.404 112.622,-32.654 		"/>
		<polygon fill="#231F20" points="97.465,-23.904 89.888,-28.279 97.465,-32.654 		"/>
		<polygon fill="#231F20" points="105.043,-19.529 112.622,-15.154 112.622,-23.904 		"/>
		<polygon fill="#231F20" points="85.513,-53.357 85.513,-62.107 93.09,-57.732 		"/>
		<polygon fill="#231F20" points="93.09,-40.232 85.513,-35.857 85.513,-44.607 		"/>
		<polygon fill="#231F20" points="100.668,-44.607 108.247,-48.982 100.668,-53.357 		"/>
		<polygon fill="#231F20" points="61.607,-44.607 54.03,-48.982 61.607,-53.357 		"/>
		<polygon fill="#231F20" points="76.763,-44.607 76.763,-35.857 69.185,-40.232 		"/>
		<polygon fill="#231F20" points="76.763,-53.357 76.763,-62.107 69.185,-57.732 		"/>
		<polygon fill="#231F20" points="57.232,-60.935 49.656,-56.56 49.656,-65.31 		"/>
		<polygon fill="#231F20" points="64.81,-74.06 72.388,-69.685 64.81,-65.31 		"/>
		<polygon fill="#231F20" points="57.232,-78.435 49.656,-82.81 49.656,-74.06 		"/>
		<polygon fill="#231F20" points="105.043,-78.435 112.622,-82.81 112.622,-74.06 		"/>
		<polygon fill="#231F20" points="97.465,-65.31 89.888,-69.685 97.465,-74.06 		"/>
		<polygon fill="#231F20" points="105.043,-60.935 112.622,-56.56 112.622,-65.31 		"/>
		<polygon fill="#231F20" points="93.09,-81.638 85.513,-77.263 85.513,-86.013 		"/>
		<polygon fill="#231F20" points="100.668,-86.013 108.247,-90.388 100.668,-94.763 		"/>
		<polygon fill="#231F20" points="61.607,-86.013 54.03,-90.388 61.607,-94.763 		"/>
		<polygon fill="#231F20" points="76.763,-86.013 76.763,-77.263 69.185,-81.638 		"/>
		<polygon fill="#231F20" points="15.125,-64.671 15.125,-73.421 22.703,-69.046 		"/>
	</g>
</pattern>
<rect fill="url(#Hexagon_Persian)" width="180" height="252"/>
</svg>
