<svg xmlns="http://www.w3.org/2000/svg" data-name="Layer 1" viewBox="0 0 488.96 925" x="0px" y="0px"><path d="M330.55,251l-16.37-16.07,3.16-14.43-12.24-.38-4.63-7.2,7.73-5.4L299.54,198l4.55-23.22L279.16,193.7,265.9,174.09,247.84,189l-14.11,4.94-20.15,1.46L206.9,190l1.6,14L204,217.33l5.13,15.74L193,243.74l14.85,19.46-12,20.55,26.95.32L237.6,300.3l-3.18,31.46,15.64-34.42,10.24,4.29,13.37-11.22,16.51.45,33,15.76L306.23,270.8l6.42-12.48ZM269.8,279.51c-18.93,6.14-39.81-5.87-46.63-26.82s3-42.9,21.92-49,39.8,5.88,46.62,26.82S288.72,273.38,269.8,279.51Z"/><path d="M243.27,213.47c-14.77,4.78-22.42,21.91-17.1,38.25s21.61,25.71,36.37,20.92,22.42-21.91,17.1-38.25S258,208.68,243.27,213.47Z"/><path d="M146.9,409,134.44,391l7.4-30.75-20.14,32-9.57-5.63-14.76,9.32-16.31-2.67L50.53,373.15l11.91,37.77-8,11.5L35.67,427.3l14,18.13L44.64,459.3l12.08,2,3.62,7.75L52,473.39,59.25,484,51.6,506.37,78.86,491l10.5,21.22,19.91-12.34,14.64-3,20.17,1.27L150,504.4l.29-14.06,6.25-12.68-3-16.27L171,453l-12.08-21.28L173.56,413ZM114,485.68c-19.58,3.53-38.65-11.18-42.58-32.85s8.76-42.1,28.34-45.63,38.65,11.18,42.58,32.85S133.56,482.16,114,485.68Z"/><path d="M96.67,416.66c-15.28,2.76-25.18,18.69-22.11,35.6s17.94,28.38,33.22,25.63,25.17-18.69,22.11-35.6S112,413.91,96.67,416.66Z"/><path d="M454.47,414.47l14.64-18.74-26.66-4L430,373.71l7.4-30.74-20.15,32-9.56-5.63-14.76,9.31L376.61,376l-30.53-20.06L358,393.69l-8,11.49-18.73,4.88,14,18.13-5.08,13.87,12.08,2,3.62,7.75-8.4,4.31,7.3,10.59-7.64,22.39,27.26-15.42,10.5,21.22,19.91-12.34,14.64-3,20.17,1.27,5.88,6.3.3-14.06,6.24-12.68-2.95-16.28,17.46-8.4Zm-45,54c-19.59,3.53-38.65-11.18-42.58-32.86s8.75-42.1,28.34-45.63,38.65,11.18,42.58,32.86S429.1,464.92,409.52,468.45Z"/><path d="M392.22,399.43C376.94,402.18,367,418.12,370.11,435s17.94,28.38,33.21,25.63,25.18-18.69,22.11-35.6S407.49,396.67,392.22,399.43Z"/><text x="0" y="755" fill="#000000" font-size="5px" font-weight="bold" font-family="'Helvetica Neue', Helvetica, Arial-Unicode, Arial, Sans-serif">Created by Angelica Pardi</text><text x="0" y="760" fill="#000000" font-size="5px" font-weight="bold" font-family="'Helvetica Neue', Helvetica, Arial-Unicode, Arial, Sans-serif">from the Noun Project</text></svg>