<?xml version="1.0" encoding="utf-8"?>
<!-- Generator: Adobe Illustrator 15.1.0, SVG Export Plug-In . SVG Version: 6.00 Build 0)  -->
<!DOCTYPE svg PUBLIC "-//W3C//DTD SVG 1.1//EN" "http://www.w3.org/Graphics/SVG/1.1/DTD/svg11.dtd">
<svg version="1.1" id="Layer_1" xmlns="http://www.w3.org/2000/svg" xmlns:xlink="http://www.w3.org/1999/xlink" x="0px" y="0px"
	 width="59.682px" height="46.559px" viewBox="0 0 59.682 46.559" enable-background="new 0 0 59.682 46.559" xml:space="preserve">
<path d="M40.603,10.59l-2.254-2.212l0.435-1.987l-1.685-0.052l-0.638-0.991l1.064-0.744l-1.192-1.311l0.626-3.197L33.527,2.7
	L31.701,0l-2.487,2.053l-1.943,0.68l-2.774,0.201l-0.92-0.743l0.221,1.928l-0.62,1.835l0.706,2.167L21.664,9.59l2.044,2.68
	l-1.652,2.83l3.711,0.044l2.038,2.235l-0.438,4.332l2.153-4.74l1.41,0.591l1.841-1.545l2.273,0.062l4.544,2.17l-2.334-4.932
	l0.884-1.718L40.603,10.59z M32.238,14.516c-2.606,0.846-5.481-0.808-6.421-3.693c-0.939-2.885,0.413-5.907,3.019-6.747
	c2.605-0.84,5.48,0.81,6.419,3.693C36.194,10.652,34.843,13.671,32.238,14.516z"/>
<path d="M28.585,5.422c-2.033,0.658-3.087,3.017-2.354,5.267c0.733,2.25,2.976,3.541,5.008,2.881
	c2.032-0.66,3.087-3.017,2.354-5.267C32.861,6.053,30.613,4.763,28.585,5.422z"/>
<path d="M15.316,32.346L13.6,29.867l1.019-4.234l-2.773,4.406l-1.317-0.775l-2.033,1.283L6.25,30.18l-4.204-2.771l1.64,5.201
	l-1.102,1.583L0,34.866l1.928,2.496l-0.692,1.91l1.663,0.275l0.499,1.067l-1.148,0.598l0.998,1.461l-1.053,3.08l3.753-2.116
	l1.446,2.922l2.741-1.699l2.016-0.413l2.777,0.175l0.815,0.861l0.04-1.936l0.86-1.746l-0.413-2.24l2.404-1.155l-1.664-2.93
	l2.016-2.578L15.316,32.346z M10.786,42.904c-2.696,0.486-5.322-1.539-5.863-4.523c-0.542-2.984,1.206-5.797,3.902-6.283
	c2.696-0.486,5.322,1.54,5.863,4.523C15.229,39.605,13.479,42.419,10.786,42.904z"/>
<path d="M8.399,33.4c-2.104,0.38-3.467,2.574-3.044,4.902s2.47,3.908,4.574,3.529c2.104-0.379,3.466-2.574,3.044-4.902
	C12.552,34.601,10.51,33.021,8.399,33.4z"/>
<path d="M57.666,33.099l2.016-2.58l-3.671-0.551l-1.714-2.481l1.019-4.233l-2.774,4.406l-1.316-0.775l-2.033,1.282l-2.247-0.365
	l-4.204-2.762l1.641,5.198l-1.102,1.582l-2.579,0.672l1.928,2.496l-0.699,1.91l1.663,0.275l0.499,1.067l-1.157,0.594l1.005,1.458
	l-1.052,3.083l3.754-2.124l1.446,2.922l2.741-1.7l2.016-0.413l2.777,0.175l0.81,0.868l0.041-1.936l0.859-1.746l-0.406-2.242
	l2.404-1.157L57.666,33.099z M51.47,40.535c-2.697,0.486-5.322-1.54-5.863-4.525s1.205-5.797,3.902-6.283
	c2.697-0.486,5.322,1.54,5.863,4.525s-1.199,5.794-3.895,6.28L51.47,40.535z"/>
<path d="M49.095,31.028c-2.104,0.379-3.473,2.574-3.044,4.898s2.47,3.908,4.573,3.529c2.103-0.378,3.467-2.573,3.044-4.902
	C53.245,32.225,51.197,30.648,49.095,31.028z"/>
</svg>
